<svg id="visual" viewBox="0 0 1920 304" width="1920" height="304" xmlns="http://www.w3.org/2000/svg" xmlns:xlink="http://www.w3.org/1999/xlink" version="1.1"><path d="M0 146L13.8 158C27.7 170 55.3 194 83.2 194.3C111 194.7 139 171.3 166.8 159.8C194.7 148.3 222.3 148.7 250.2 162.2C278 175.7 306 202.3 333.8 205.3C361.7 208.3 389.3 187.7 417.2 182C445 176.3 473 185.7 500.8 190C528.7 194.3 556.3 193.7 584.2 188.3C612 183 640 173 667.8 179C695.7 185 723.3 207 751.2 214.3C779 221.7 807 214.3 834.8 205.8C862.7 197.3 890.3 187.7 918.2 186C946 184.3 974 190.7 1001.8 198.8C1029.7 207 1057.3 217 1085.2 216C1113 215 1141 203 1168.8 198.5C1196.7 194 1224.3 197 1252.2 188.7C1280 180.3 1308 160.7 1335.8 154.5C1363.7 148.3 1391.3 155.7 1419.2 158.5C1447 161.3 1475 159.7 1502.8 160.2C1530.7 160.7 1558.3 163.3 1586.2 169.7C1614 176 1642 186 1669.8 192.8C1697.7 199.7 1725.3 203.3 1753.2 194.7C1781 186 1809 165 1836.8 162.5C1864.7 160 1892.3 176 1906.2 184L1920 192L1920 305L1906.2 305C1892.3 305 1864.7 305 1836.8 305C1809 305 1781 305 1753.2 305C1725.3 305 1697.7 305 1669.8 305C1642 305 1614 305 1586.2 305C1558.3 305 1530.7 305 1502.8 305C1475 305 1447 305 1419.2 305C1391.3 305 1363.7 305 1335.8 305C1308 305 1280 305 1252.2 305C1224.3 305 1196.7 305 1168.8 305C1141 305 1113 305 1085.2 305C1057.3 305 1029.7 305 1001.8 305C974 305 946 305 918.2 305C890.3 305 862.7 305 834.8 305C807 305 779 305 751.2 305C723.3 305 695.7 305 667.8 305C640 305 612 305 584.2 305C556.3 305 528.7 305 500.8 305C473 305 445 305 417.2 305C389.3 305 361.7 305 333.8 305C306 305 278 305 250.2 305C222.3 305 194.7 305 166.8 305C139 305 111 305 83.2 305C55.3 305 27.7 305 13.8 305L0 305Z" fill="#9f141f"></path><path d="M0 181L13.8 180.5C27.7 180 55.3 179 83.2 179.7C111 180.3 139 182.7 166.8 192.3C194.7 202 222.3 219 250.2 223.5C278 228 306 220 333.8 211.5C361.7 203 389.3 194 417.2 190C445 186 473 187 500.8 197.2C528.7 207.3 556.3 226.7 584.2 224.2C612 221.7 640 197.3 667.8 193.7C695.7 190 723.3 207 751.2 217C779 227 807 230 834.8 231.2C862.7 232.3 890.3 231.7 918.2 227.7C946 223.7 974 216.3 1001.8 217.2C1029.7 218 1057.3 227 1085.2 226.7C1113 226.3 1141 216.7 1168.8 212.5C1196.7 208.3 1224.3 209.7 1252.2 209.2C1280 208.7 1308 206.3 1335.8 206.3C1363.7 206.3 1391.3 208.7 1419.2 211.3C1447 214 1475 217 1502.8 215C1530.7 213 1558.3 206 1586.2 206.2C1614 206.3 1642 213.7 1669.8 218.5C1697.7 223.3 1725.3 225.7 1753.2 220.2C1781 214.7 1809 201.3 1836.8 196.3C1864.7 191.3 1892.3 194.7 1906.2 196.3L1920 198L1920 305L1906.2 305C1892.3 305 1864.7 305 1836.8 305C1809 305 1781 305 1753.2 305C1725.3 305 1697.7 305 1669.8 305C1642 305 1614 305 1586.2 305C1558.3 305 1530.7 305 1502.8 305C1475 305 1447 305 1419.2 305C1391.3 305 1363.7 305 1335.8 305C1308 305 1280 305 1252.2 305C1224.3 305 1196.7 305 1168.8 305C1141 305 1113 305 1085.2 305C1057.3 305 1029.7 305 1001.8 305C974 305 946 305 918.2 305C890.3 305 862.7 305 834.8 305C807 305 779 305 751.2 305C723.3 305 695.7 305 667.8 305C640 305 612 305 584.2 305C556.3 305 528.7 305 500.8 305C473 305 445 305 417.2 305C389.3 305 361.7 305 333.8 305C306 305 278 305 250.2 305C222.3 305 194.7 305 166.8 305C139 305 111 305 83.2 305C55.3 305 27.7 305 13.8 305L0 305Z" fill="#b51724"></path><path d="M0 258L13.8 254.2C27.7 250.3 55.3 242.7 83.2 235C111 227.3 139 219.7 166.8 220.3C194.7 221 222.3 230 250.2 236.8C278 243.7 306 248.3 333.8 243C361.7 237.7 389.3 222.3 417.2 218.2C445 214 473 221 500.8 224.3C528.7 227.7 556.3 227.3 584.2 227.7C612 228 640 229 667.8 230.2C695.7 231.3 723.3 232.7 751.2 236.3C779 240 807 246 834.8 250.7C862.7 255.3 890.3 258.7 918.2 258.5C946 258.3 974 254.7 1001.8 252.8C1029.7 251 1057.3 251 1085.2 246.2C1113 241.3 1141 231.7 1168.8 233C1196.7 234.3 1224.3 246.7 1252.2 247.8C1280 249 1308 239 1335.8 236C1363.7 233 1391.3 237 1419.2 238.2C1447 239.3 1475 237.7 1502.8 239.8C1530.7 242 1558.3 248 1586.2 248C1614 248 1642 242 1669.8 236.8C1697.7 231.7 1725.3 227.3 1753.2 227.7C1781 228 1809 233 1836.8 236C1864.7 239 1892.3 240 1906.2 240.5L1920 241L1920 305L1906.2 305C1892.3 305 1864.7 305 1836.8 305C1809 305 1781 305 1753.2 305C1725.3 305 1697.7 305 1669.8 305C1642 305 1614 305 1586.2 305C1558.3 305 1530.7 305 1502.8 305C1475 305 1447 305 1419.2 305C1391.3 305 1363.7 305 1335.8 305C1308 305 1280 305 1252.2 305C1224.3 305 1196.7 305 1168.8 305C1141 305 1113 305 1085.2 305C1057.3 305 1029.7 305 1001.8 305C974 305 946 305 918.2 305C890.3 305 862.7 305 834.8 305C807 305 779 305 751.2 305C723.3 305 695.7 305 667.8 305C640 305 612 305 584.2 305C556.3 305 528.7 305 500.8 305C473 305 445 305 417.2 305C389.3 305 361.7 305 333.8 305C306 305 278 305 250.2 305C222.3 305 194.7 305 166.8 305C139 305 111 305 83.2 305C55.3 305 27.7 305 13.8 305L0 305Z" fill="#cc1b29"></path><path d="M0 243L13.8 243.2C27.7 243.3 55.3 243.7 83.2 249.2C111 254.7 139 265.3 166.8 265.8C194.7 266.3 222.3 256.7 250.2 254.8C278 253 306 259 333.8 258.2C361.7 257.3 389.3 249.7 417.2 248.7C445 247.7 473 253.3 500.8 254.7C528.7 256 556.3 253 584.2 255C612 257 640 264 667.8 263.2C695.7 262.3 723.3 253.7 751.2 250.7C779 247.7 807 250.3 834.8 255.2C862.7 260 890.3 267 918.2 269.2C946 271.3 974 268.7 1001.8 267.3C1029.7 266 1057.3 266 1085.2 263.5C1113 261 1141 256 1168.8 256.5C1196.7 257 1224.3 263 1252.2 264.7C1280 266.3 1308 263.7 1335.8 259.8C1363.7 256 1391.3 251 1419.2 252.5C1447 254 1475 262 1502.8 261.7C1530.7 261.3 1558.3 252.7 1586.2 253.8C1614 255 1642 266 1669.8 269.3C1697.7 272.7 1725.3 268.3 1753.2 268.2C1781 268 1809 272 1836.8 270.7C1864.7 269.3 1892.3 262.7 1906.2 259.3L1920 256L1920 305L1906.2 305C1892.3 305 1864.7 305 1836.8 305C1809 305 1781 305 1753.2 305C1725.3 305 1697.7 305 1669.8 305C1642 305 1614 305 1586.2 305C1558.3 305 1530.7 305 1502.8 305C1475 305 1447 305 1419.2 305C1391.3 305 1363.7 305 1335.8 305C1308 305 1280 305 1252.2 305C1224.3 305 1196.7 305 1168.8 305C1141 305 1113 305 1085.2 305C1057.3 305 1029.7 305 1001.8 305C974 305 946 305 918.2 305C890.3 305 862.7 305 834.8 305C807 305 779 305 751.2 305C723.3 305 695.7 305 667.8 305C640 305 612 305 584.2 305C556.3 305 528.7 305 500.8 305C473 305 445 305 417.2 305C389.3 305 361.7 305 333.8 305C306 305 278 305 250.2 305C222.3 305 194.7 305 166.8 305C139 305 111 305 83.2 305C55.3 305 27.7 305 13.8 305L0 305Z" fill="#e31e2e"></path></svg>